<?xml version="1.0" encoding="UTF-8"?>
<mxfile host="app.diagrams.net" modified="2021-05-14T03:27:27.475Z" agent="5.0 (Windows NT 10.0; Win64; x64) AppleWebKit/537.36 (KHTML, like Gecko) Chrome/90.0.4430.212 Safari/537.36" etag="Zt9E8MQ6rymXy3nirnkl" version="14.6.12" type="google">
  <diagram id="RJg_fUvLG44Hsd2ovuKe" name="Page-1">
    <mxGraphModel dx="2076" dy="982" grid="1" gridSize="10" guides="1" tooltips="1" connect="1" arrows="1" fold="1" page="1" pageScale="1" pageWidth="827" pageHeight="1169" math="0" shadow="0">
      <root>
        <mxCell id="0" />
        <mxCell id="1" parent="0" />
        <mxCell id="AMrAVw4-U_rbbZGCOPB7-103" value="" style="endArrow=none;dashed=1;html=1;" edge="1" parent="1" target="AMrAVw4-U_rbbZGCOPB7-100">
          <mxGeometry width="50" height="50" relative="1" as="geometry">
            <mxPoint x="1435" y="750" as="sourcePoint" />
            <mxPoint x="1434.41" y="164" as="targetPoint" />
          </mxGeometry>
        </mxCell>
        <mxCell id="AMrAVw4-U_rbbZGCOPB7-109" value="" style="endArrow=none;dashed=1;html=1;startArrow=none;" edge="1" parent="1" source="AMrAVw4-U_rbbZGCOPB7-149" target="AMrAVw4-U_rbbZGCOPB7-108">
          <mxGeometry width="50" height="50" relative="1" as="geometry">
            <mxPoint x="875" y="800" as="sourcePoint" />
            <mxPoint x="874" y="164" as="targetPoint" />
          </mxGeometry>
        </mxCell>
        <mxCell id="AMrAVw4-U_rbbZGCOPB7-110" value="" style="endArrow=none;dashed=1;html=1;" edge="1" parent="1">
          <mxGeometry width="50" height="50" relative="1" as="geometry">
            <mxPoint x="1018" y="750" as="sourcePoint" />
            <mxPoint x="1018.41" y="164" as="targetPoint" />
          </mxGeometry>
        </mxCell>
        <mxCell id="AMrAVw4-U_rbbZGCOPB7-1" value="Manager" style="shape=umlActor;verticalLabelPosition=bottom;verticalAlign=top;html=1;outlineConnect=0;" vertex="1" parent="1">
          <mxGeometry x="720" y="90" width="30" height="60" as="geometry" />
        </mxCell>
        <mxCell id="AMrAVw4-U_rbbZGCOPB7-2" value="" style="endArrow=none;dashed=1;html=1;startArrow=none;" edge="1" parent="1" source="AMrAVw4-U_rbbZGCOPB7-108">
          <mxGeometry width="50" height="50" relative="1" as="geometry">
            <mxPoint x="874.5" y="754" as="sourcePoint" />
            <mxPoint x="874" y="164" as="targetPoint" />
          </mxGeometry>
        </mxCell>
        <mxCell id="AMrAVw4-U_rbbZGCOPB7-7" value="Controller" style="html=1;" vertex="1" parent="1">
          <mxGeometry x="1241" y="114" width="110" height="50" as="geometry" />
        </mxCell>
        <mxCell id="AMrAVw4-U_rbbZGCOPB7-11" value="Database&lt;br&gt;Connection" style="html=1;" vertex="1" parent="1">
          <mxGeometry x="1520" y="114" width="110" height="50" as="geometry" />
        </mxCell>
        <mxCell id="AMrAVw4-U_rbbZGCOPB7-12" value="" style="endArrow=none;dashed=1;html=1;startArrow=none;" edge="1" parent="1" source="AMrAVw4-U_rbbZGCOPB7-72">
          <mxGeometry width="50" height="50" relative="1" as="geometry">
            <mxPoint x="1575" y="704" as="sourcePoint" />
            <mxPoint x="1574.5" y="164" as="targetPoint" />
          </mxGeometry>
        </mxCell>
        <mxCell id="AMrAVw4-U_rbbZGCOPB7-13" value="Database" style="shape=umlActor;verticalLabelPosition=bottom;verticalAlign=top;html=1;outlineConnect=0;" vertex="1" parent="1">
          <mxGeometry x="1700" y="90" width="30" height="60" as="geometry" />
        </mxCell>
        <mxCell id="AMrAVw4-U_rbbZGCOPB7-14" value="" style="endArrow=none;dashed=1;html=1;" edge="1" parent="1">
          <mxGeometry width="50" height="50" relative="1" as="geometry">
            <mxPoint x="1715" y="750" as="sourcePoint" />
            <mxPoint x="1714.5" y="174" as="targetPoint" />
          </mxGeometry>
        </mxCell>
        <mxCell id="AMrAVw4-U_rbbZGCOPB7-17" value="Feedback List&lt;br&gt;View" style="html=1;" vertex="1" parent="1">
          <mxGeometry x="964" y="114" width="110" height="50" as="geometry" />
        </mxCell>
        <mxCell id="AMrAVw4-U_rbbZGCOPB7-19" value="Feedback Detail&lt;br&gt;View" style="html=1;" vertex="1" parent="1">
          <mxGeometry x="1104" y="114" width="110" height="50" as="geometry" />
        </mxCell>
        <mxCell id="AMrAVw4-U_rbbZGCOPB7-49" value="" style="endArrow=none;dashed=1;html=1;startArrow=none;" edge="1" parent="1" source="AMrAVw4-U_rbbZGCOPB7-70">
          <mxGeometry width="50" height="50" relative="1" as="geometry">
            <mxPoint x="1295" y="704" as="sourcePoint" />
            <mxPoint x="1295.29" y="163.9999999999999" as="targetPoint" />
          </mxGeometry>
        </mxCell>
        <mxCell id="AMrAVw4-U_rbbZGCOPB7-52" value="" style="endArrow=none;dashed=1;html=1;startArrow=none;" edge="1" parent="1">
          <mxGeometry width="50" height="50" relative="1" as="geometry">
            <mxPoint x="1158.29" y="608" as="sourcePoint" />
            <mxPoint x="1158.29" y="163.9999999999999" as="targetPoint" />
          </mxGeometry>
        </mxCell>
        <mxCell id="AMrAVw4-U_rbbZGCOPB7-53" value="click view feedback menu" style="html=1;verticalAlign=bottom;startArrow=oval;startFill=1;endArrow=block;startSize=8;" edge="1" parent="1">
          <mxGeometry width="60" relative="1" as="geometry">
            <mxPoint x="734" y="204" as="sourcePoint" />
            <mxPoint x="870" y="204" as="targetPoint" />
          </mxGeometry>
        </mxCell>
        <mxCell id="AMrAVw4-U_rbbZGCOPB7-54" value="feedbackList := retrieve()" style="html=1;verticalAlign=bottom;endArrow=block;" edge="1" parent="1">
          <mxGeometry width="80" relative="1" as="geometry">
            <mxPoint x="1301" y="324" as="sourcePoint" />
            <mxPoint x="1570" y="324" as="targetPoint" />
          </mxGeometry>
        </mxCell>
        <mxCell id="AMrAVw4-U_rbbZGCOPB7-55" value="retrieve records" style="html=1;verticalAlign=bottom;endArrow=block;" edge="1" parent="1">
          <mxGeometry width="80" relative="1" as="geometry">
            <mxPoint x="1575" y="343.52" as="sourcePoint" />
            <mxPoint x="1715" y="343.52" as="targetPoint" />
          </mxGeometry>
        </mxCell>
        <mxCell id="AMrAVw4-U_rbbZGCOPB7-56" value="return records" style="html=1;verticalAlign=bottom;endArrow=open;dashed=1;endSize=8;exitX=0.006;exitY=0.996;exitDx=0;exitDy=0;exitPerimeter=0;" edge="1" parent="1">
          <mxGeometry relative="1" as="geometry">
            <mxPoint x="1715.06" y="373.9700000000001" as="sourcePoint" />
            <mxPoint x="1580" y="373.52" as="targetPoint" />
          </mxGeometry>
        </mxCell>
        <mxCell id="AMrAVw4-U_rbbZGCOPB7-58" value="render(feedbackList:List)" style="html=1;verticalAlign=bottom;endArrow=block;" edge="1" parent="1">
          <mxGeometry width="80" relative="1" as="geometry">
            <mxPoint x="1295.97" y="383.43" as="sourcePoint" />
            <mxPoint x="1024" y="383.91" as="targetPoint" />
          </mxGeometry>
        </mxCell>
        <mxCell id="AMrAVw4-U_rbbZGCOPB7-60" value="result displayed" style="html=1;verticalAlign=bottom;endArrow=open;dashed=1;endSize=8;" edge="1" parent="1">
          <mxGeometry relative="1" as="geometry">
            <mxPoint x="734" y="420" as="targetPoint" />
            <mxPoint x="1018" y="420" as="sourcePoint" />
          </mxGeometry>
        </mxCell>
        <mxCell id="AMrAVw4-U_rbbZGCOPB7-61" value="click a feedback item" style="html=1;verticalAlign=bottom;startArrow=oval;startFill=1;endArrow=block;startSize=8;entryX=-0.013;entryY=0.707;entryDx=0;entryDy=0;entryPerimeter=0;" edge="1" parent="1" target="AMrAVw4-U_rbbZGCOPB7-85">
          <mxGeometry width="60" relative="1" as="geometry">
            <mxPoint x="735" y="458" as="sourcePoint" />
            <mxPoint x="1009" y="458" as="targetPoint" />
          </mxGeometry>
        </mxCell>
        <mxCell id="AMrAVw4-U_rbbZGCOPB7-63" value="retrieve records" style="html=1;verticalAlign=bottom;endArrow=block;" edge="1" parent="1">
          <mxGeometry width="80" relative="1" as="geometry">
            <mxPoint x="1574" y="538" as="sourcePoint" />
            <mxPoint x="1714" y="538" as="targetPoint" />
          </mxGeometry>
        </mxCell>
        <mxCell id="AMrAVw4-U_rbbZGCOPB7-64" value="return records" style="html=1;verticalAlign=bottom;endArrow=open;dashed=1;endSize=8;exitX=0.006;exitY=0.996;exitDx=0;exitDy=0;exitPerimeter=0;" edge="1" parent="1">
          <mxGeometry relative="1" as="geometry">
            <mxPoint x="1714.06" y="568.45" as="sourcePoint" />
            <mxPoint x="1579" y="568" as="targetPoint" />
          </mxGeometry>
        </mxCell>
        <mxCell id="AMrAVw4-U_rbbZGCOPB7-70" value="" style="html=1;points=[];perimeter=orthogonalPerimeter;" vertex="1" parent="1">
          <mxGeometry x="1291" y="224" width="10" height="160" as="geometry" />
        </mxCell>
        <mxCell id="AMrAVw4-U_rbbZGCOPB7-71" value="" style="endArrow=none;dashed=1;html=1;startArrow=none;" edge="1" parent="1" source="AMrAVw4-U_rbbZGCOPB7-74" target="AMrAVw4-U_rbbZGCOPB7-70">
          <mxGeometry width="50" height="50" relative="1" as="geometry">
            <mxPoint x="1295.97" y="784" as="sourcePoint" />
            <mxPoint x="1296.97" y="430" as="targetPoint" />
          </mxGeometry>
        </mxCell>
        <mxCell id="AMrAVw4-U_rbbZGCOPB7-72" value="" style="html=1;points=[];perimeter=orthogonalPerimeter;" vertex="1" parent="1">
          <mxGeometry x="1570" y="323.52" width="10" height="50" as="geometry" />
        </mxCell>
        <mxCell id="AMrAVw4-U_rbbZGCOPB7-73" value="" style="endArrow=none;dashed=1;html=1;startArrow=none;" edge="1" parent="1" source="AMrAVw4-U_rbbZGCOPB7-76" target="AMrAVw4-U_rbbZGCOPB7-72">
          <mxGeometry width="50" height="50" relative="1" as="geometry">
            <mxPoint x="1575" y="738" as="sourcePoint" />
            <mxPoint x="1574.5" y="198" as="targetPoint" />
          </mxGeometry>
        </mxCell>
        <mxCell id="AMrAVw4-U_rbbZGCOPB7-74" value="" style="html=1;points=[];perimeter=orthogonalPerimeter;" vertex="1" parent="1">
          <mxGeometry x="1291.97" y="488" width="10" height="120" as="geometry" />
        </mxCell>
        <mxCell id="AMrAVw4-U_rbbZGCOPB7-62" value="feedback := retrieve(feedbackId:int)" style="html=1;verticalAlign=bottom;endArrow=block;" edge="1" parent="1">
          <mxGeometry width="80" relative="1" as="geometry">
            <mxPoint x="1300.97" y="518" as="sourcePoint" />
            <mxPoint x="1570" y="518" as="targetPoint" />
          </mxGeometry>
        </mxCell>
        <mxCell id="AMrAVw4-U_rbbZGCOPB7-76" value="" style="html=1;points=[];perimeter=orthogonalPerimeter;" vertex="1" parent="1">
          <mxGeometry x="1570" y="518" width="10" height="50" as="geometry" />
        </mxCell>
        <mxCell id="AMrAVw4-U_rbbZGCOPB7-77" value="" style="endArrow=none;dashed=1;html=1;" edge="1" parent="1" target="AMrAVw4-U_rbbZGCOPB7-76">
          <mxGeometry width="50" height="50" relative="1" as="geometry">
            <mxPoint x="1575" y="750" as="sourcePoint" />
            <mxPoint x="1575" y="308" as="targetPoint" />
          </mxGeometry>
        </mxCell>
        <mxCell id="AMrAVw4-U_rbbZGCOPB7-85" value="" style="html=1;points=[];perimeter=orthogonalPerimeter;" vertex="1" parent="1">
          <mxGeometry x="1014" y="384" width="10" height="104" as="geometry" />
        </mxCell>
        <mxCell id="AMrAVw4-U_rbbZGCOPB7-88" value="" style="endArrow=none;dashed=1;html=1;" edge="1" parent="1">
          <mxGeometry width="50" height="50" relative="1" as="geometry">
            <mxPoint x="1159" y="750" as="sourcePoint" />
            <mxPoint x="1159" y="628" as="targetPoint" />
          </mxGeometry>
        </mxCell>
        <mxCell id="AMrAVw4-U_rbbZGCOPB7-89" value="get(feedbacksRetrievalRequest)" style="html=1;verticalAlign=bottom;endArrow=block;" edge="1" parent="1">
          <mxGeometry width="80" relative="1" as="geometry">
            <mxPoint x="879" y="224" as="sourcePoint" />
            <mxPoint x="1290" y="224" as="targetPoint" />
          </mxGeometry>
        </mxCell>
        <mxCell id="AMrAVw4-U_rbbZGCOPB7-92" value="get(feedbackDetailRetrievalRequest)" style="html=1;verticalAlign=bottom;endArrow=block;" edge="1" parent="1">
          <mxGeometry width="80" relative="1" as="geometry">
            <mxPoint x="1020" y="488" as="sourcePoint" />
            <mxPoint x="1291" y="488" as="targetPoint" />
          </mxGeometry>
        </mxCell>
        <mxCell id="AMrAVw4-U_rbbZGCOPB7-98" value="Authentication&lt;br&gt;Checker" style="html=1;" vertex="1" parent="1">
          <mxGeometry x="1380" y="114" width="110" height="50" as="geometry" />
        </mxCell>
        <mxCell id="AMrAVw4-U_rbbZGCOPB7-99" value="" style="endArrow=none;dashed=1;html=1;startArrow=none;" edge="1" parent="1" source="AMrAVw4-U_rbbZGCOPB7-100">
          <mxGeometry width="50" height="50" relative="1" as="geometry">
            <mxPoint x="1434.91" y="694" as="sourcePoint" />
            <mxPoint x="1434.41" y="164" as="targetPoint" />
          </mxGeometry>
        </mxCell>
        <mxCell id="AMrAVw4-U_rbbZGCOPB7-101" value="auth := Authenticate()" style="html=1;verticalAlign=bottom;endArrow=block;" edge="1" parent="1">
          <mxGeometry width="80" relative="1" as="geometry">
            <mxPoint x="1301" y="254" as="sourcePoint" />
            <mxPoint x="1430" y="254" as="targetPoint" />
          </mxGeometry>
        </mxCell>
        <mxCell id="AMrAVw4-U_rbbZGCOPB7-100" value="" style="html=1;points=[];perimeter=orthogonalPerimeter;" vertex="1" parent="1">
          <mxGeometry x="1430" y="254" width="10" height="30" as="geometry" />
        </mxCell>
        <mxCell id="AMrAVw4-U_rbbZGCOPB7-69" value="result displayed" style="html=1;verticalAlign=bottom;endArrow=open;dashed=1;endSize=8;" edge="1" parent="1">
          <mxGeometry relative="1" as="geometry">
            <mxPoint x="735" y="628" as="targetPoint" />
            <mxPoint x="1159.97" y="628" as="sourcePoint" />
          </mxGeometry>
        </mxCell>
        <mxCell id="AMrAVw4-U_rbbZGCOPB7-67" value="render(feedback:List)" style="html=1;verticalAlign=bottom;endArrow=block;" edge="1" parent="1">
          <mxGeometry width="80" relative="1" as="geometry">
            <mxPoint x="1295.97" y="607.9999999999999" as="sourcePoint" />
            <mxPoint x="1164" y="607.41" as="targetPoint" />
          </mxGeometry>
        </mxCell>
        <mxCell id="AMrAVw4-U_rbbZGCOPB7-106" value="Menu Bar View" style="html=1;" vertex="1" parent="1">
          <mxGeometry x="824" y="114" width="110" height="50" as="geometry" />
        </mxCell>
        <mxCell id="AMrAVw4-U_rbbZGCOPB7-107" value="" style="endArrow=none;dashed=1;html=1;" edge="1" parent="1">
          <mxGeometry width="50" height="50" relative="1" as="geometry">
            <mxPoint x="735" y="750" as="sourcePoint" />
            <mxPoint x="734.5" y="174" as="targetPoint" />
          </mxGeometry>
        </mxCell>
        <mxCell id="AMrAVw4-U_rbbZGCOPB7-108" value="" style="html=1;points=[];perimeter=orthogonalPerimeter;" vertex="1" parent="1">
          <mxGeometry x="869" y="204" width="10" height="20" as="geometry" />
        </mxCell>
        <mxCell id="AMrAVw4-U_rbbZGCOPB7-141" value="" style="group" vertex="1" connectable="0" parent="1">
          <mxGeometry x="300" y="220" width="375" height="540" as="geometry" />
        </mxCell>
        <mxCell id="AMrAVw4-U_rbbZGCOPB7-112" value="" style="whiteSpace=wrap;html=1;shape=mxgraph.basic.rectCallout;dx=34.22;dy=20;boundedLbl=1;rotation=-180;" vertex="1" parent="AMrAVw4-U_rbbZGCOPB7-141">
          <mxGeometry x="5" width="368" height="540" as="geometry" />
        </mxCell>
        <mxCell id="AMrAVw4-U_rbbZGCOPB7-113" value="Template" style="html=1;" vertex="1" parent="AMrAVw4-U_rbbZGCOPB7-141">
          <mxGeometry x="66" y="40" width="110" height="50" as="geometry" />
        </mxCell>
        <mxCell id="AMrAVw4-U_rbbZGCOPB7-115" value="Controller" style="html=1;" vertex="1" parent="AMrAVw4-U_rbbZGCOPB7-141">
          <mxGeometry x="206" y="40" width="110" height="50" as="geometry" />
        </mxCell>
        <mxCell id="AMrAVw4-U_rbbZGCOPB7-116" value="" style="endArrow=none;dashed=1;html=1;startArrow=none;" edge="1" parent="AMrAVw4-U_rbbZGCOPB7-141">
          <mxGeometry width="50" height="50" as="geometry">
            <mxPoint x="260.5" y="534" as="sourcePoint" />
            <mxPoint x="260.5" y="90" as="targetPoint" />
          </mxGeometry>
        </mxCell>
        <mxCell id="AMrAVw4-U_rbbZGCOPB7-119" value="" style="html=1;points=[];perimeter=orthogonalPerimeter;" vertex="1" parent="AMrAVw4-U_rbbZGCOPB7-141">
          <mxGeometry x="255" y="160" width="10" height="280" as="geometry" />
        </mxCell>
        <mxCell id="AMrAVw4-U_rbbZGCOPB7-120" value="auth := Authenticate()" style="html=1;verticalAlign=bottom;endArrow=block;" edge="1" parent="AMrAVw4-U_rbbZGCOPB7-141">
          <mxGeometry width="80" as="geometry">
            <mxPoint x="265" y="190" as="sourcePoint" />
            <mxPoint x="375" y="190" as="targetPoint" />
          </mxGeometry>
        </mxCell>
        <mxCell id="AMrAVw4-U_rbbZGCOPB7-118" value="feedbackList := retrieve()" style="html=1;verticalAlign=bottom;endArrow=block;" edge="1" parent="AMrAVw4-U_rbbZGCOPB7-141">
          <mxGeometry width="80" as="geometry">
            <mxPoint x="265" y="260" as="sourcePoint" />
            <mxPoint x="375" y="260" as="targetPoint" />
          </mxGeometry>
        </mxCell>
        <mxCell id="AMrAVw4-U_rbbZGCOPB7-124" value="result displayed" style="html=1;verticalAlign=bottom;endArrow=open;dashed=1;endSize=8;" edge="1" parent="AMrAVw4-U_rbbZGCOPB7-141">
          <mxGeometry as="geometry">
            <mxPoint x="5" y="327" as="targetPoint" />
            <mxPoint x="119" y="326.57000000000016" as="sourcePoint" />
          </mxGeometry>
        </mxCell>
        <mxCell id="AMrAVw4-U_rbbZGCOPB7-125" value="click a feedback item" style="html=1;verticalAlign=bottom;startArrow=oval;startFill=1;endArrow=block;startSize=8;entryX=-0.013;entryY=0.707;entryDx=0;entryDy=0;entryPerimeter=0;" edge="1" parent="AMrAVw4-U_rbbZGCOPB7-141" target="AMrAVw4-U_rbbZGCOPB7-127">
          <mxGeometry width="60" as="geometry">
            <mxPoint x="5" y="364" as="sourcePoint" />
            <mxPoint x="110" y="364.57000000000016" as="targetPoint" />
          </mxGeometry>
        </mxCell>
        <mxCell id="AMrAVw4-U_rbbZGCOPB7-129" value="feedback := retrieve(feedbackId:int)" style="html=1;verticalAlign=bottom;endArrow=block;" edge="1" parent="AMrAVw4-U_rbbZGCOPB7-141">
          <mxGeometry width="80" as="geometry">
            <mxPoint x="265.0000000000002" y="420" as="sourcePoint" />
            <mxPoint x="375" y="420" as="targetPoint" />
          </mxGeometry>
        </mxCell>
        <mxCell id="AMrAVw4-U_rbbZGCOPB7-131" value="result displayed" style="html=1;verticalAlign=bottom;endArrow=open;dashed=1;endSize=8;" edge="1" parent="AMrAVw4-U_rbbZGCOPB7-141">
          <mxGeometry as="geometry">
            <mxPoint x="5" y="480" as="targetPoint" />
            <mxPoint x="115" y="480" as="sourcePoint" />
          </mxGeometry>
        </mxCell>
        <mxCell id="AMrAVw4-U_rbbZGCOPB7-135" value="" style="html=1;points=[];perimeter=orthogonalPerimeter;" vertex="1" parent="AMrAVw4-U_rbbZGCOPB7-141">
          <mxGeometry x="115" y="140" width="10" height="20" as="geometry" />
        </mxCell>
        <mxCell id="AMrAVw4-U_rbbZGCOPB7-136" value="" style="endArrow=none;dashed=1;html=1;startArrow=none;" edge="1" parent="AMrAVw4-U_rbbZGCOPB7-141">
          <mxGeometry width="50" height="50" as="geometry">
            <mxPoint x="119.40999999999997" y="534" as="sourcePoint" />
            <mxPoint x="119.40999999999997" y="90" as="targetPoint" />
          </mxGeometry>
        </mxCell>
        <mxCell id="AMrAVw4-U_rbbZGCOPB7-117" value="get(feedbacksRetrievalRequest)" style="html=1;verticalAlign=bottom;endArrow=block;" edge="1" parent="AMrAVw4-U_rbbZGCOPB7-141">
          <mxGeometry width="80" as="geometry">
            <mxPoint x="125" y="160" as="sourcePoint" />
            <mxPoint x="255" y="160" as="targetPoint" />
          </mxGeometry>
        </mxCell>
        <mxCell id="AMrAVw4-U_rbbZGCOPB7-132" value="" style="html=1;points=[];perimeter=orthogonalPerimeter;" vertex="1" parent="AMrAVw4-U_rbbZGCOPB7-141">
          <mxGeometry x="115" y="450" width="10" height="30" as="geometry" />
        </mxCell>
        <mxCell id="AMrAVw4-U_rbbZGCOPB7-130" value="render(feedbackInfo)" style="html=1;verticalAlign=bottom;endArrow=block;" edge="1" parent="AMrAVw4-U_rbbZGCOPB7-141">
          <mxGeometry width="80" as="geometry">
            <mxPoint x="256.97000000000025" y="449.59000000000015" as="sourcePoint" />
            <mxPoint x="125" y="449" as="targetPoint" />
          </mxGeometry>
        </mxCell>
        <mxCell id="AMrAVw4-U_rbbZGCOPB7-128" value="get(feedbackDetailRetrievalRequest)" style="html=1;verticalAlign=bottom;endArrow=block;" edge="1" parent="AMrAVw4-U_rbbZGCOPB7-141">
          <mxGeometry width="80" as="geometry">
            <mxPoint x="121" y="394.57000000000016" as="sourcePoint" />
            <mxPoint x="255" y="395" as="targetPoint" />
          </mxGeometry>
        </mxCell>
        <mxCell id="AMrAVw4-U_rbbZGCOPB7-127" value="" style="html=1;points=[];perimeter=orthogonalPerimeter;" vertex="1" parent="AMrAVw4-U_rbbZGCOPB7-141">
          <mxGeometry x="115" y="290.57000000000016" width="10" height="104" as="geometry" />
        </mxCell>
        <mxCell id="AMrAVw4-U_rbbZGCOPB7-123" value="render(feedbackList:string)" style="html=1;verticalAlign=bottom;endArrow=block;" edge="1" parent="AMrAVw4-U_rbbZGCOPB7-141">
          <mxGeometry width="80" as="geometry">
            <mxPoint x="255" y="290" as="sourcePoint" />
            <mxPoint x="125" y="290.48" as="targetPoint" />
          </mxGeometry>
        </mxCell>
        <mxCell id="AMrAVw4-U_rbbZGCOPB7-138" value="&lt;font style=&quot;font-size: 14px&quot;&gt;&lt;b&gt;V1&lt;/b&gt;&lt;/font&gt;" style="ellipse;whiteSpace=wrap;html=1;aspect=fixed;" vertex="1" parent="AMrAVw4-U_rbbZGCOPB7-141">
          <mxGeometry y="10" width="50" height="50" as="geometry" />
        </mxCell>
        <mxCell id="AMrAVw4-U_rbbZGCOPB7-134" value="click view feedback menu" style="html=1;verticalAlign=bottom;startArrow=oval;startFill=1;endArrow=block;startSize=8;" edge="1" parent="AMrAVw4-U_rbbZGCOPB7-141">
          <mxGeometry width="60" as="geometry">
            <mxPoint x="5" y="140" as="sourcePoint" />
            <mxPoint x="116" y="140" as="targetPoint" />
          </mxGeometry>
        </mxCell>
        <mxCell id="AMrAVw4-U_rbbZGCOPB7-142" value="&lt;b&gt;alt&lt;/b&gt;" style="shape=umlFrame;whiteSpace=wrap;html=1;" vertex="1" parent="1">
          <mxGeometry x="710" y="300" width="1030" height="450" as="geometry" />
        </mxCell>
        <mxCell id="AMrAVw4-U_rbbZGCOPB7-145" value="render(auth:boolean)" style="html=1;verticalAlign=bottom;endArrow=block;strokeWidth=2;" edge="1" parent="1">
          <mxGeometry width="80" relative="1" as="geometry">
            <mxPoint x="1291" y="690" as="sourcePoint" />
            <mxPoint x="880" y="690" as="targetPoint" />
          </mxGeometry>
        </mxCell>
        <mxCell id="AMrAVw4-U_rbbZGCOPB7-144" value="" style="html=1;points=[];perimeter=orthogonalPerimeter;" vertex="1" parent="1">
          <mxGeometry x="1291" y="650" width="10" height="40" as="geometry" />
        </mxCell>
        <mxCell id="AMrAVw4-U_rbbZGCOPB7-147" value="" style="endArrow=none;dashed=1;html=1;" edge="1" parent="1" target="AMrAVw4-U_rbbZGCOPB7-144">
          <mxGeometry width="50" height="50" relative="1" as="geometry">
            <mxPoint x="1296" y="750" as="sourcePoint" />
            <mxPoint x="1296" y="608" as="targetPoint" />
          </mxGeometry>
        </mxCell>
        <mxCell id="AMrAVw4-U_rbbZGCOPB7-148" value="result displayed" style="html=1;verticalAlign=bottom;endArrow=open;dashed=1;endSize=8;" edge="1" parent="1">
          <mxGeometry relative="1" as="geometry">
            <mxPoint x="735.03" y="720" as="targetPoint" />
            <mxPoint x="876" y="720" as="sourcePoint" />
          </mxGeometry>
        </mxCell>
        <mxCell id="AMrAVw4-U_rbbZGCOPB7-149" value="" style="html=1;points=[];perimeter=orthogonalPerimeter;" vertex="1" parent="1">
          <mxGeometry x="869" y="690" width="10" height="30" as="geometry" />
        </mxCell>
        <mxCell id="AMrAVw4-U_rbbZGCOPB7-150" value="" style="endArrow=none;dashed=1;html=1;" edge="1" parent="1" target="AMrAVw4-U_rbbZGCOPB7-149">
          <mxGeometry width="50" height="50" relative="1" as="geometry">
            <mxPoint x="875" y="750" as="sourcePoint" />
            <mxPoint x="875" y="224" as="targetPoint" />
          </mxGeometry>
        </mxCell>
        <mxCell id="AMrAVw4-U_rbbZGCOPB7-151" value="" style="html=1;points=[];perimeter=orthogonalPerimeter;" vertex="1" parent="1">
          <mxGeometry x="1154" y="608" width="10" height="20" as="geometry" />
        </mxCell>
        <mxCell id="AMrAVw4-U_rbbZGCOPB7-153" value="" style="endArrow=none;dashed=1;html=1;exitX=0.495;exitY=-0.009;exitDx=0;exitDy=0;exitPerimeter=0;" edge="1" parent="1" source="AMrAVw4-U_rbbZGCOPB7-144">
          <mxGeometry width="50" height="50" relative="1" as="geometry">
            <mxPoint x="1296" y="660" as="sourcePoint" />
            <mxPoint x="1296.38" y="608" as="targetPoint" />
          </mxGeometry>
        </mxCell>
        <mxCell id="AMrAVw4-U_rbbZGCOPB7-154" value="" style="endArrow=none;dashed=1;html=1;strokeWidth=2;" edge="1" parent="1">
          <mxGeometry width="50" height="50" relative="1" as="geometry">
            <mxPoint x="710" y="650" as="sourcePoint" />
            <mxPoint x="1740" y="650" as="targetPoint" />
          </mxGeometry>
        </mxCell>
        <mxCell id="AMrAVw4-U_rbbZGCOPB7-155" value="auth == True" style="text;html=1;strokeColor=none;fillColor=none;align=center;verticalAlign=middle;whiteSpace=wrap;rounded=0;" vertex="1" parent="1">
          <mxGeometry x="770" y="303.52" width="90" height="20" as="geometry" />
        </mxCell>
        <mxCell id="AMrAVw4-U_rbbZGCOPB7-156" value="&lt;b&gt;[else]&lt;/b&gt;" style="text;html=1;strokeColor=none;fillColor=none;align=center;verticalAlign=middle;whiteSpace=wrap;rounded=0;" vertex="1" parent="1">
          <mxGeometry x="740" y="654" width="40" height="20" as="geometry" />
        </mxCell>
      </root>
    </mxGraphModel>
  </diagram>
</mxfile>
